<?xml version="1.0" standalone="no"?>
<!DOCTYPE svg PUBLIC "-//W3C//DTD SVG 20010904//EN"
 "http://www.w3.org/TR/2001/REC-SVG-20010904/DTD/svg10.dtd">
<svg version="1.0" xmlns="http://www.w3.org/2000/svg"
 width="238.000000pt" height="238.000000pt" viewBox="0 0 238.000000 238.000000"
 preserveAspectRatio="xMidYMid meet">

<g transform="translate(0.000000,238.000000) scale(0.100000,-0.100000)"
fill="#000000" stroke="none">
<path d="M485 1730 c-86 -18 -256 -92 -243 -105 2 -2 26 1 53 6 138 27 240
-35 331 -200 87 -157 159 -233 251 -265 21 -7 76 -16 122 -19 51 -4 88 -12 93
-19 5 -10 8 -8 8 5 0 9 -4 17 -10 17 -5 0 -40 29 -77 64 -80 74 -100 86 -173
102 -48 11 -50 12 -20 13 19 1 50 -3 68 -8 17 -5 32 -7 32 -5 0 18 -49 85 -69
94 -22 10 -23 9 -11 -4 7 -9 10 -16 6 -16 -4 0 1 -12 10 -26 l17 -25 -29 7
c-16 4 -31 11 -32 16 -2 4 -7 6 -11 4 -3 -2 -22 9 -41 25 l-35 30 37 -3 c20
-2 34 0 32 4 -3 4 -22 8 -43 8 -24 0 -44 6 -52 17 -13 15 -9 16 42 10 31 -3
71 -13 88 -21 17 -9 31 -12 31 -7 0 13 -94 41 -139 41 -30 0 -85 19 -57 20 11
0 -75 84 -144 142 l-45 38 47 0 c83 0 225 -65 213 -98 -3 -7 -1 -11 4 -8 5 4
21 -14 35 -39 15 -24 35 -49 46 -55 26 -14 25 -7 -5 45 -49 83 -140 149 -234
170 -18 4 -30 9 -28 11 3 3 26 0 51 -7 71 -18 67 -3 -5 20 l-64 20 75 -5 c85
-7 151 -29 230 -77 41 -24 54 -38 52 -52 -2 -15 0 -16 6 -7 7 11 10 10 16 -3
3 -9 3 -22 -1 -27 -3 -7 -1 -8 5 -4 7 4 12 1 12 -8 0 -9 -3 -16 -7 -17 -5 0
-17 -2 -27 -4 -29 -6 -37 4 -25 28 10 21 10 21 -5 3 -9 -11 -19 -16 -23 -13
-4 4 -1 13 5 19 7 7 12 17 12 23 0 5 -7 1 -15 -9 -15 -19 -16 -19 -45 9 -29
28 -33 44 -15 57 6 5 6 8 -2 8 -6 0 -15 -5 -18 -10 -4 -6 -25 0 -53 16 -26 14
-36 17 -22 7 55 -40 111 -97 142 -146 18 -29 36 -55 41 -58 5 -3 8 -8 7 -10
-1 -2 4 -17 10 -34 11 -27 13 -28 20 -10 6 16 8 14 7 -11 0 -18 10 -47 23 -65
28 -40 103 -116 148 -148 l32 -22 0 43 c-1 212 -131 394 -354 499 -56 26 -82
32 -154 35 -48 2 -105 -1 -127 -6z m52 -36 c-3 -3 -12 -4 -19 -1 -8 3 -5 6 6
6 11 1 17 -2 13 -5z"/>
<path d="M710 1682 c0 -4 9 -13 19 -19 16 -10 19 -9 17 4 -3 15 -36 29 -36 15z"/>
<path d="M1343 1421 c-108 -39 -180 -112 -198 -201 l-8 -35 50 46 c47 44 99
78 133 87 8 2 49 7 90 10 58 6 85 3 120 -9 68 -25 138 -58 145 -69 3 -5 -25 4
-62 22 -78 35 -162 56 -128 32 10 -8 25 -14 32 -14 36 0 108 -54 97 -72 -8
-13 -47 -9 -76 6 -26 14 -28 14 -29 -7 l0 -22 -9 23 c-10 23 -53 46 -80 44
-22 -3 -44 14 -36 27 10 15 26 14 22 -1 -1 -7 -1 -10 1 -6 3 4 19 1 36 -8 l32
-16 -30 26 c-18 15 -43 25 -62 26 -36 0 -42 -10 -18 -30 8 -7 14 -27 14 -44
-1 -21 -3 -25 -6 -11 -3 11 -14 32 -25 47 l-19 28 -42 -22 c-58 -29 -101 -63
-133 -105 l-27 -36 31 23 c41 30 109 32 251 6 177 -32 340 -9 446 61 24 17 34
28 25 29 -77 12 -90 18 -169 83 -47 40 -103 77 -129 85 -62 22 -174 20 -239
-3z m207 -12 c0 -5 4 -7 10 -4 19 12 105 -49 94 -67 -3 -5 -2 -7 3 -6 12 3 73
-31 73 -42 0 -5 -9 -8 -20 -7 -14 1 -19 6 -15 17 5 12 4 13 -6 3 -15 -15 -49
-17 -49 -3 0 5 -3 9 -7 8 -5 -1 -32 6 -61 16 -34 11 -50 22 -45 29 4 7 -1 6
-10 -2 -25 -20 -33 -5 -11 21 l19 23 -25 -21 c-31 -25 -68 -22 -48 4 11 15 10
14 -8 0 -11 -10 -26 -18 -32 -18 -20 0 -13 27 11 43 25 18 127 23 127 6z
m-215 -149 c-3 -5 -11 -10 -16 -10 -6 0 -7 5 -4 10 3 6 11 10 16 10 6 0 7 -4
4 -10z"/>
<path d="M1610 1372 c0 -6 5 -14 10 -17 8 -5 7 -12 -2 -23 -12 -15 -11 -16 5
-3 14 11 15 17 5 30 -7 9 -14 18 -15 20 -2 2 -3 -1 -3 -7z"/>
<path d="M810 1411 c0 -6 4 -13 10 -16 6 -3 7 1 4 9 -7 18 -14 21 -14 7z"/>
<path d="M760 1406 c0 -2 7 -7 16 -10 8 -3 12 -2 9 4 -6 10 -25 14 -25 6z"/>
<path d="M2105 1360 c-3 -5 -1 -10 4 -10 6 0 11 5 11 10 0 6 -2 10 -4 10 -3 0
-8 -4 -11 -10z"/>
<path d="M1470 1285 c13 -14 26 -25 28 -25 3 0 -5 11 -18 25 -13 14 -26 25
-28 25 -3 0 5 -11 18 -25z"/>
<path d="M2070 1283 c-55 -13 -55 -13 -10 -9 45 4 45 4 15 -9 -30 -13 -75 -57
-75 -74 0 -5 -9 -12 -19 -16 -11 -3 -22 -14 -24 -23 -3 -9 -5 -2 -6 17 -1 49
-7 36 -15 -35 l-7 -61 59 -16 c33 -9 77 -19 99 -23 l40 -6 7 55 c8 63 6 206
-3 210 -3 2 -31 -3 -61 -10z"/>
<path d="M1565 1240 c-3 -5 -1 -10 4 -10 6 0 11 5 11 10 0 6 -2 10 -4 10 -3 0
-8 -4 -11 -10z"/>
<path d="M1091 1094 c0 -11 3 -14 6 -6 3 7 2 16 -1 19 -3 4 -6 -2 -5 -13z"/>
<path d="M1081 1044 c0 -11 3 -14 6 -6 3 7 2 16 -1 19 -3 4 -6 -2 -5 -13z"/>
<path d="M1071 1004 c0 -11 3 -14 6 -6 3 7 2 16 -1 19 -3 4 -6 -2 -5 -13z"/>
<path d="M1895 971 c-10 -25 -28 -65 -41 -87 l-23 -41 81 -57 82 -56 30 47
c32 53 70 134 79 174 6 25 5 25 -93 46 l-98 20 -17 -46z"/>
<path d="M1062 955 c0 -16 2 -22 5 -12 2 9 2 23 0 30 -3 6 -5 -1 -5 -18z"/>
<path d="M1043 863 c-4 -32 -8 -112 -8 -179 0 -140 11 -174 57 -174 15 0 28 2
28 4 0 2 -11 23 -24 47 -36 64 -50 154 -43 265 4 52 5 94 2 94 -2 0 -7 -26
-12 -57z"/>
<path d="M1085 795 c2 -80 8 -135 19 -166 18 -48 70 -119 89 -119 6 0 -1 12
-15 28 -64 68 -78 110 -88 262 l-8 115 3 -120z"/>
<path d="M1729 721 l-75 -76 44 -73 44 -72 30 17 c33 19 188 161 188 172 0 3
-35 29 -78 57 l-77 51 -76 -76z"/>
<path d="M1545 584 c-33 -19 -77 -39 -98 -46 -31 -9 -37 -15 -33 -32 3 -12 8
-45 12 -73 6 -51 8 -52 33 -47 57 14 178 55 208 72 l33 17 -48 71 -47 71 -60
-33z"/>
<path d="M1316 503 c-11 -3 -44 -29 -74 -59 -41 -40 -63 -54 -86 -55 -61 -3
56 -17 143 -18 81 -1 83 -1 78 22 -3 12 -9 43 -12 70 -7 46 -11 50 -49 40z"/>
<path d="M1213 483 c15 -2 37 -2 50 0 12 2 0 4 -28 4 -27 0 -38 -2 -22 -4z"/>
</g>
</svg>
